<svg id="icon_vale" xmlns="http://www.w3.org/2000/svg" width="24" height="24" viewBox="0 0 24 24">
  <rect id="Retângulo_396" data-name="Retângulo 396" width="24" height="24" fill="none"/>
  <g id="Grupo_1572" data-name="Grupo 1572" transform="translate(-480 -502)">
    <path id="Caminho_431" data-name="Caminho 431" d="M110.733,6.509a2.229,2.229,0,0,0-1.292-.459c-1.477,0-2.4,1.477-4.291,1.78A3.811,3.811,0,0,0,107.41,9a2.676,2.676,0,0,0,2.107-.9Z" transform="translate(387.267 503.95)" fill="#bbb"/>
    <path id="Caminho_432" data-name="Caminho 432" d="M6.417,2.149a3.811,3.811,0,0,0,2.26,1.174,2.676,2.676,0,0,0,2.107-.9L5.937,8.862,0,.923A3.967,3.967,0,0,1,2.585,0C4.105,0,5.291,1.193,6.417,2.149" transform="translate(486 510)" fill="#bbb"/>
  </g>
</svg>
