<svg id="Icon_supply" xmlns="http://www.w3.org/2000/svg" xmlns:xlink="http://www.w3.org/1999/xlink" width="24" height="24" viewBox="0 0 24 24">
  <defs>
    <clipPath id="clip-path">
      <rect id="Ret창ngulo_394" data-name="Ret창ngulo 394" width="16.621" height="6.817" fill="#bbb"/>
    </clipPath>
  </defs>
  <g id="Grupo_1576" data-name="Grupo 1576" transform="translate(-678 -414)">
    <rect id="Ret창ngulo_397" data-name="Ret창ngulo 397" width="24" height="24" transform="translate(678 414)" fill="none"/>
  </g>
  <g id="Grupo_1577" data-name="Grupo 1577" transform="translate(4 9)">
    <g id="Grupo_1570" data-name="Grupo 1570" clip-path="url(#clip-path)">
      <path id="Caminho_575" data-name="Caminho 575" d="M58.807,4.426,57.2,1.584l.7-.406c.526-.306,1.048-.621,1.58-.917A1.927,1.927,0,0,1,61.153.132q.933.342,1.882.639c.388.122.786.213,1.182.306a.639.639,0,0,1,.522.764.649.649,0,0,1-.817.473c-.654-.16-1.3-.35-1.952-.521a.494.494,0,0,0-.287-.011.322.322,0,0,0-.156.208.247.247,0,0,0,.187.3c.509.144,1.019.287,1.531.417a8.643,8.643,0,0,0,1.115.238,2.558,2.558,0,0,0,1.714-.4c.531-.338,1.086-.636,1.631-.953.5-.292,1-.6,1.508-.874a4.107,4.107,0,0,1,.944-.381A.819.819,0,0,1,71,.515.765.765,0,0,1,70.88,1.6c-1.024.618-2.042,1.248-3.06,1.875-.914.562-1.83,1.121-2.737,1.694a1.976,1.976,0,0,1-1.646.24c-1.077-.29-2.155-.573-3.233-.861-.269-.072-.538-.146-.8-.23a.482.482,0,0,0-.492.057.5.5,0,0,1-.1.048" transform="translate(-54.554 0)" fill="#bbb"/>
      <path id="Caminho_576" data-name="Caminho 576" d="M1.306,18.427a.441.441,0,0,1,.444.265q.547.959,1.088,1.921c.464.822.92,1.648,1.393,2.465a.522.522,0,0,1-.2.8c-.308.14-.593.33-.9.471a.354.354,0,0,1-.5-.186Q2.1,23.216,1.559,22.27C1.07,21.4.59,20.533.092,19.673a.515.515,0,0,1,.242-.781c.245-.12.472-.274.714-.4a1.085,1.085,0,0,1,.259-.064m-.114.988a.267.267,0,0,0-.293.272.318.318,0,0,0,.3.321.321.321,0,0,0,.324-.32c0-.179-.118-.273-.331-.273" transform="translate(0 -17.571)" fill="#bbb"/>
      <path id="Caminho_577" data-name="Caminho 577" d="M19.726,39.823c.214,0,.327.094.331.273a.312.312,0,1,1-.624,0,.267.267,0,0,1,.293-.272" transform="translate(-18.533 -37.979)" fill="#bbb"/>
    </g>
  </g>
</svg>
